<?xml version="1.0" encoding="utf-8"?>
<!-- Generator: Adobe Illustrator 21.0.2, SVG Export Plug-In . SVG Version: 6.00 Build 0)  -->
<svg version="1.1" id="Layer_1" xmlns="http://www.w3.org/2000/svg" xmlns:xlink="http://www.w3.org/1999/xlink" x="0px" y="0px"
	 viewBox="0 0 740 399" style="enable-background:new 0 0 740 399;" xml:space="preserve">
<style type="text/css">
	.st0{fill:#D0D2D3;}
	.st1{clip-path:url(#SVGID_2_);fill:none;stroke:#FFFFFF;stroke-miterlimit:10;}
	.st2{clip-path:url(#SVGID_2_);fill:#E6E7E8;}
	.st3{fill:#A6A8AB;}
	.st4{clip-path:url(#SVGID_4_);fill:none;stroke:#FFFFFF;stroke-miterlimit:10;}
	.st5{fill:#E6E7E8;}
	.st6{clip-path:url(#SVGID_6_);fill:none;stroke:#FFFFFF;stroke-miterlimit:10;}
	.st7{clip-path:url(#SVGID_6_);fill:#A6A8AB;}
	.st8{clip-path:url(#SVGID_6_);fill:#D0D2D3;}
	.st9{clip-path:url(#SVGID_6_);fill:none;stroke:#FFFFFF;stroke-linecap:round;stroke-linejoin:round;stroke-miterlimit:10;}
	.st10{fill:none;stroke:#FFFFFF;stroke-linecap:round;stroke-linejoin:round;stroke-miterlimit:10;}
	.st11{clip-path:url(#SVGID_8_);fill:#404041;}
	.st12{clip-path:url(#SVGID_8_);fill:#808184;}
	.st13{clip-path:url(#SVGID_8_);fill:#00B4EF;}
</style>
<polygon class="st0" points="212.5,0.3 318.5,0.3 318.5,200.2 258.1,200.2 191.2,175 191.2,38.4 191.2,35.4 191.2,31.5 191.2,27.5 
	195.7,27 198.1,24.5 200.6,22.6 204.6,22.1 208.5,21.1 210,18.6 212,15.6 211,10.7 211.5,7.7 "/>
<g>
	<defs>
		<rect id="SVGID_1_" y="-0.2" width="740.2" height="588.2"/>
	</defs>
	<clipPath id="SVGID_2_">
		<use xlink:href="#SVGID_1_"  style="overflow:visible;"/>
	</clipPath>
	<polygon class="st1" points="212.5,0.3 318.5,0.3 318.5,200.2 258.1,200.2 191.2,175 191.2,38.4 191.2,35.4 191.2,31.5 191.2,27.5 
		195.7,27 198.1,24.5 200.6,22.6 204.6,22.1 208.5,21.1 210,18.6 212,15.6 211,10.7 211.5,7.7 	"/>
	<path class="st2" d="M0.5,0.3v57.4c0,0,2.5-3.5,2.5,0c0,3.5,2.5-0.5,2.5,3.5v4v6.9h7.9h3l5,2.5h4h6.4H51v17.3h4l3,12.9l5,4h3.5h4
		l5.5-2.5l8.4,0.5l7.4,6.4l15.9,10.4v29.7l37.2-2l-13.4-17.3l2-85.6l-51-48H0.5z"/>
	<path class="st1" d="M0.5,0.3v57.4c0,0,2.5-3.5,2.5,0c0,3.5,2.5-0.5,2.5,3.5v4v6.9h7.9h3l5,2.5h4h6.4H51v17.3h4l3,12.9l5,4h3.5h4
		l5.5-2.5l8.4,0.5l7.4,6.4l15.9,10.4v29.7l37.2-2l-13.4-17.3l2-85.6l-51-48H0.5z"/>
</g>
<polygon class="st3" points="210.3,0.3 81.8,0.3 132.9,48.3 130.9,134 144.3,151.3 149.3,151.3 148.3,158.2 191.4,175.1 191.4,27.5 
	195.9,27 198.4,24.5 204.8,22.1 210.3,18.6 212.3,15.6 211.3,10.7 212.3,4 212.8,0.3 "/>
<g>
	<defs>
		<rect id="SVGID_3_" y="-0.2" width="740.2" height="588.2"/>
	</defs>
	<clipPath id="SVGID_4_">
		<use xlink:href="#SVGID_3_"  style="overflow:visible;"/>
	</clipPath>
	<polygon class="st4" points="210.3,0.3 81.8,0.3 132.9,48.3 130.9,134 144.3,151.3 149.3,151.3 148.3,158.2 191.4,175.1 
		191.4,27.5 195.9,27 198.4,24.5 204.8,22.1 210.3,18.6 212.3,15.6 211.3,10.7 212.3,4 212.8,0.3 	"/>
</g>
<polygon class="st5" points="318.2,0.3 497.3,0.3 497.3,175.1 426.1,175.1 423.1,211.7 418.7,207.7 413.7,203.3 410.2,198.3 
	403.3,196.4 398.4,186.5 396.4,184 341.9,184 341.9,200.3 318.2,200.3 "/>
<g>
	<defs>
		<rect id="SVGID_5_" y="-0.2" width="740.2" height="588.2"/>
	</defs>
	<clipPath id="SVGID_6_">
		<use xlink:href="#SVGID_5_"  style="overflow:visible;"/>
	</clipPath>
	<polygon class="st6" points="318.2,0.3 497.3,0.3 497.3,175.1 426.1,175.1 423.1,211.7 418.7,207.7 413.7,203.3 410.2,198.3 
		403.3,196.4 398.4,186.5 396.4,184 341.9,184 341.9,200.3 318.2,200.3 	"/>
	<path class="st7" d="M726.9,0.3H497v12.9h90V84h4.5l6.4,6.4c0,0-1.5,2,3,0c4.5-2,9.3-5.2,11.1,0.9c1.8,6.1,6.8,4.1,6.8,4.1l7.4,5
		c0,0,3-3,6.4,0c3.5,3,5.4-2.5,5.4-2.5l5.9,2.5l3.5,5.7l5.4,3.2l6.4-5.4c0,0,2-1.5,4,2.2c2,3.7,6.4-3.2,7.9,0c1.5,3.2,4,3.2,4,3.2
		l4.9-3.2l5.4,3.2h8.4l5.9,3.5l5.9-4l10.9-2.7l6.9,2.2l3.3-2.2V0.3z"/>
	<path class="st6" d="M726.9,0.3H497v12.9h90V84h4.5l6.4,6.4c0,0-1.5,2,3,0c4.5-2,9.3-5.2,11.1,0.9c1.8,6.1,6.8,4.1,6.8,4.1l7.4,5
		c0,0,3-3,6.4,0c3.5,3,5.4-2.5,5.4-2.5l5.9,2.5l3.5,5.7l5.4,3.2l6.4-5.4c0,0,2-1.5,4,2.2c2,3.7,6.4-3.2,7.9,0c1.5,3.2,4,3.2,4,3.2
		l4.9-3.2l5.4,3.2h8.4l5.9,3.5l5.9-4l10.9-2.7l6.9,2.2l3.3-2.2V0.3z"/>
	<path class="st8" d="M726.9,105.8l-3.3,2.2l-6.9-2.2l-10.9,2.7l-5.9,4l-5.9-3.5h-8.4l-5.4-3.2l-4.9,3.2c0,0-2.5,0-4-3.2
		c-1.5-3.2-5.9,3.7-7.9,0c-2-3.7-4-2.2-4-2.2l-6.4,5.4l-5.4-3.2l-3.5-5.7l-5.9-2.5c0,0-2,5.4-5.4,2.5c-3.5-3-6.4,0-6.4,0l-7.4-4.9
		c0,0-4.9,2-6.8-4.1c-1.8-6-6.6-2.9-11.1-0.9c-4.5,2-3,0-3,0l-6.4-6.4h-4.5V13.1h-90v161.7h-71.2l-3,36.6l5.9,7.9l6.9,3l3.5,2.5
		l2.5,3.5l2.5,7.9l3,5.4l2.5,9.9l5.4,11.9l5.4,3.5l4.5,5.4l7.9,3l5.9,2.5l10.4,6.4l3.5,3c0,0,4.5,1,4.5,0v-4.9l4.5-3.5l2.5-6.4
		l4.9-11.4l5.9-3l4.9-3l10.4,0.5l9.4,2.5l5.4-1l4.9,5.9l3.5,4.5l8.9,6.9l4.9,6.9l5.4,11.4l6.9,18.8l6.4,6.4l6.4,11.9l7.9,4.9
		c0,0,1-1.5,2.5,4s2.5,13.4,2.5,13.4l4.5,10.4l2.2,9.4l2.8,5.4l7.4,4.5h4.5l7.9,4.4l8.9,4.5h12.9l7.4,8.4h7.9l3.5-5.4l-5.9-21.3
		c0,0-9.9-33.1,11.9-50.9s42-31.6,42-31.6l3.8-2.5V105.8z"/>
	<path class="st6" d="M726.9,105.8l-3.3,2.2l-6.9-2.2l-10.9,2.7l-5.9,4l-5.9-3.5h-8.4l-5.4-3.2l-4.9,3.2c0,0-2.5,0-4-3.2
		c-1.5-3.2-5.9,3.7-7.9,0c-2-3.7-4-2.2-4-2.2l-6.4,5.4l-5.4-3.2l-3.5-5.7l-5.9-2.5c0,0-2,5.4-5.4,2.5c-3.5-3-6.4,0-6.4,0l-7.4-4.9
		c0,0-4.9,2-6.8-4.1c-1.8-6-6.6-2.9-11.1-0.9c-4.5,2-3,0-3,0l-6.4-6.4h-4.5V13.1h-90v161.7h-71.2l-3,36.6l5.9,7.9l6.9,3l3.5,2.5
		l2.5,3.5l2.5,7.9l3,5.4l2.5,9.9l5.4,11.9l5.4,3.5l4.5,5.4l7.9,3l5.9,2.5l10.4,6.4l3.5,3c0,0,4.5,1,4.5,0v-4.9l4.5-3.5l2.5-6.4
		l4.9-11.4l5.9-3l4.9-3l10.4,0.5l9.4,2.5l5.4-1l4.9,5.9l3.5,4.5l8.9,6.9l4.9,6.9l5.4,11.4l6.9,18.8l6.4,6.4l6.4,11.9l7.9,4.9
		c0,0,1-1.5,2.5,4s2.5,13.4,2.5,13.4l4.5,10.4l2.2,9.4l2.8,5.4l7.4,4.5h4.5l7.9,4.4l8.9,4.5h12.9l7.4,8.4h7.9l3.5-5.4l-5.9-21.3
		c0,0-9.9-33.1,11.9-50.9s42-31.6,42-31.6l3.8-2.5V105.8z"/>
	<path class="st8" d="M0.5,57.5v30c0,0,9.2,0.7,12.9,6s3,5.2,9.7,6.7c6.7,1.5,10.4,2.5,12.6,5.7c2.2,3.2,3,6.4,8.2,6.7
		c5.2,0.2,6.7,4,10.4,6.2c3.7,2.2,17.3,9.7,18.3,11.2c1,1.5,1,10.4,3.2,15.6c2.2,5.2,1.7,10.4,6.4,10.4c4.7,0,25.3-2.7,25.3-2.7
		v-29.8l-23.3-16.9l-8.4-0.5l-9.4,2.5h-3.5l-6-8.4L55,91.7h-4V74.3H21.3l-5-2.5H8.9H5.5V60.9L0.5,57.5z"/>
	<path class="st6" d="M0.5,57.5v30c0,0,9.2,0.7,12.9,6s3,5.2,9.7,6.7c6.7,1.5,10.4,2.5,12.6,5.7c2.2,3.2,3,6.4,8.2,6.7
		c5.2,0.2,6.7,4,10.4,6.2c3.7,2.2,17.3,9.7,18.3,11.2c1,1.5,1,10.4,3.2,15.6c2.2,5.2,1.7,10.4,6.4,10.4c4.7,0,25.3-2.7,25.3-2.7
		v-29.8l-23.3-16.9l-8.4-0.5l-9.4,2.5h-3.5l-6-8.4L55,91.7h-4V74.3H21.3l-5-2.5H8.9H5.5V60.9L0.5,57.5z"/>
	<path class="st9" d="M611.8,371.6c0,0,4,4.5,6.3,0c2.2-4.5,3-7.4,7.4-7.4h9.7v-8.9v-4.5c4.5-5.2,8.9-8.2,8.9-8.2s-5.2-8.2,0-8.2
		s5.2-8.2,5.2-8.2l5.2-5.9h-3.7l3.7-6.7l-8.2-14.9c0,0,1.5-1.5,8.2-3c6.7-1.5,7.4-8.2,4.5-8.9c-3-0.7-3.7-4.5,7.4-11.9
		c11.1-7.4,6.7-14.1,6.7-14.1s5.9,1.5,9.7,0c3.7-1.5,8.2-3.5,8.2-8.8v-5.3c0,0,5.2,3,8.9,0h4.5c0,0-7.4-3,0-5.2
		c7.4-2.2,5.9,1.5,7.4-2.2c1.5-3.7,0-13.4,0-13.4s11.1,5.9,15.2,4.5"/>
	<path class="st7" d="M579.7,314.3H605v-50.2H599v-11.8l-3-13.5h12.6v-9.7h26.7l7.4,4.2l9.7-17.6l-10.4-21.5l10.4-5.2
		c0,0,2.2,1.5,0-3.7c-2.2-5.2-5.2-10.6-5.2-10.6l6.2-3.5l-6.9-14.1v-19.3h-11.1v3.7h-51.3v17.1h-15.6v16.1h-32.7v31.4H518v5.2h8.9
		h4.5l2.2,13.2l3.7,1.6l-3,7.2l3.7,3.2l-3,15.7l-1,4.1l10.9,0.5l5,5.9l6.4,6.8l5.9,4.6C562.4,274.2,577.5,296.3,579.7,314.3"/>
	<path class="st6" d="M579.7,314.3H605v-50.2H599v-11.8l-3-13.5h12.6v-9.7h26.7l7.4,4.2l9.7-17.6l-10.4-21.5l10.4-5.2
		c0,0,2.2,1.5,0-3.7c-2.2-5.2-5.2-10.6-5.2-10.6l6.2-3.5l-6.9-14.1v-19.3h-11.1v3.7h-51.3v17.1h-15.6v16.1h-32.7v31.4H518v5.2h8.9
		h4.5l2.2,13.2l3.7,1.6l-3,7.2l3.7,3.2l-3,15.7l-1,4.1l10.9,0.5l5,5.9l6.4,6.8l5.9,4.6C562.4,274.2,577.5,296.3,579.7,314.3z"/>
</g>
<line class="st10" x1="635.1" y1="101.5" x2="635.1" y2="138.2"/>
<g>
	<defs>
		<polyline id="SVGID_7_" points="740.2,-0.2 0,-0.2 0,588 740.2,588 		"/>
	</defs>
	<clipPath id="SVGID_8_">
		<use xlink:href="#SVGID_7_"  style="overflow:visible;"/>
	</clipPath>
	<path class="st11" d="M48.5,48.1c0.1,0,0.2,0.1,0.2,0.2v1.4c0,0.1-0.1,0.2-0.2,0.2h-5V52h4.3c0.1,0,0.2,0.1,0.2,0.2v1.4
		c0,0.1-0.1,0.2-0.2,0.2h-4.3v2.1h5c0.1,0,0.2,0.1,0.2,0.2v1.4c0,0.1-0.1,0.2-0.2,0.2h-6.9c-0.1,0-0.2-0.1-0.2-0.2v-9.3
		c0-0.1,0.1-0.2,0.2-0.2H48.5z"/>
	<path class="st11" d="M52.1,48.1c0.1,0,0.2,0.1,0.2,0.2v7.7h4.1c0.1,0,0.2,0.1,0.2,0.2v1.4c0,0.1-0.1,0.2-0.2,0.2h-6
		c-0.1,0-0.2-0.1-0.2-0.2v-9.3c0-0.1,0.1-0.2,0.2-0.2H52.1z"/>
	<path class="st11" d="M61.2,52.9c0-2.8,2.3-5,5.2-5c1.4,0,2.3,0.3,2.9,0.7c0.1,0.1,0.1,0.2,0.1,0.3l-0.7,1.4
		c-0.1,0.1-0.2,0.1-0.3,0.1c-0.6-0.3-1.3-0.6-2.1-0.6c-1.6,0-3,1.3-3,3.1c0,1.8,1.3,3.1,3,3.1c0.9,0,1.6-0.2,2.2-0.6
		c0.1-0.1,0.2-0.1,0.3,0.1l0.7,1.4c0.1,0.1,0,0.2-0.1,0.3c-0.8,0.4-1.7,0.7-3,0.7C63.2,57.9,61.2,56,61.2,52.9"/>
	<path class="st11" d="M78,48.1c0.1,0,0.2,0.1,0.2,0.2v1.4c0,0.1-0.1,0.2-0.2,0.2h-5V52h4.3c0.1,0,0.2,0.1,0.2,0.2v1.4
		c0,0.1-0.1,0.2-0.2,0.2h-4.3v2.1h5c0.1,0,0.2,0.1,0.2,0.2v1.4c0,0.1-0.1,0.2-0.2,0.2h-6.9c-0.1,0-0.2-0.1-0.2-0.2v-9.3
		c0-0.1,0.1-0.2,0.2-0.2H78z"/>
	<path class="st11" d="M86.4,48.3c0-0.1,0.1-0.2,0.2-0.2h1.5c0.1,0,0.2,0.1,0.2,0.2v9.3c0,0.1-0.1,0.2-0.2,0.2h-1.4
		c-0.2,0-0.3,0-0.4-0.2l-4.6-6.1v6.1c0,0.1-0.1,0.2-0.2,0.2h-1.5c-0.1,0-0.2-0.1-0.2-0.2v-9.3c0-0.1,0.1-0.2,0.2-0.2h1.4
		c0.2,0,0.3,0.1,0.4,0.2l4.6,6.1V48.3z"/>
	<path class="st11" d="M97.4,48.1c0.1,0,0.2,0.1,0.2,0.2v1.4c0,0.1-0.1,0.2-0.2,0.2h-2.9v7.6c0,0.1-0.1,0.2-0.2,0.2h-1.6
		c-0.1,0-0.2-0.1-0.2-0.2v-7.6h-2.9c-0.1,0-0.2-0.1-0.2-0.2v-1.4c0-0.1,0.1-0.2,0.2-0.2H97.4z"/>
	<path class="st11" d="M100.8,49.8v2.9h2c0.5,0,1,0,1.3-0.2c0.3-0.2,0.6-0.6,0.6-1.2c0-0.6-0.2-0.9-0.5-1.2
		c-0.3-0.2-0.7-0.3-1.1-0.3H100.8z M104.7,54.1l2.1,3.3c0.1,0.2,0.1,0.4-0.1,0.4h-1.8c-0.2,0-0.3,0-0.4-0.2l-1.9-3.1h-1.8v3.1
		c0,0.1-0.1,0.2-0.2,0.2H99c-0.1,0-0.2-0.1-0.2-0.2v-9.3c0-0.1,0.1-0.2,0.2-0.2h4.2c0.9,0,1.8,0.2,2.4,0.7c0.7,0.5,1.1,1.4,1.1,2.5
		c0,0.9-0.3,1.7-1.1,2.4C105.3,53.8,105,54,104.7,54.1"/>
	<path class="st11" d="M113,49.9c-1.7,0-3,1.3-3,3.1c0,1.7,1.3,3.1,3,3.1c1.7,0,3-1.3,3-3.1C116,51.2,114.7,49.9,113,49.9 M113,57.9
		c-2.8,0-5.2-2-5.2-5c0-3,2.4-5,5.2-5c2.8,0,5.2,2,5.2,5C118.2,55.9,115.8,57.9,113,57.9"/>
	<path class="st11" d="M1.2,123.1c-0.1-0.1-0.1-0.2-0.1-0.3l0.7-1.4c0.1-0.1,0.2-0.2,0.3-0.1c0.7,0.4,1.5,0.9,2.6,0.9
		c0.5,0,0.9-0.1,1.1-0.3c0.3-0.2,0.4-0.6,0.4-0.8c0-0.6-0.5-0.9-1.2-1.1c-0.8-0.3-1.7-0.5-2.6-1c-0.7-0.5-1.2-1.1-1.2-2.2
		c0-0.8,0.3-1.5,1-2c0.6-0.5,1.5-0.7,2.7-0.7c1.5,0,2.5,0.4,3.1,0.7c0.1,0.1,0.1,0.2,0.1,0.3l-0.7,1.4c-0.1,0.1-0.2,0.1-0.3,0.1
		c-0.7-0.4-1.5-0.7-2.4-0.7c-0.5,0-0.8,0.1-1.1,0.2c-0.2,0.2-0.4,0.4-0.4,0.7c0,0.5,0.5,0.8,1.2,1c0.9,0.3,1.9,0.5,2.7,1
		c0.6,0.4,1.1,1.1,1.1,2.2c0,1-0.4,1.7-1.1,2.2c-0.7,0.5-1.6,0.8-2.7,0.8C3.1,124,1.9,123.5,1.2,123.1"/>
	<path class="st11" d="M13.4,116.6l-1.3,3.6h2.5L13.4,116.6z M11.1,123.6c-0.1,0.2-0.2,0.2-0.4,0.2H9.1c-0.1,0-0.2-0.1-0.2-0.2
		c0,0,0-0.1,0-0.1l3.3-9.2c0-0.2,0.2-0.2,0.3-0.2h1.7c0.2,0,0.3,0.1,0.3,0.2l3.3,9.2c0,0.1,0,0.1,0,0.1c0,0.1-0.1,0.2-0.2,0.2h-1.6
		c-0.2,0-0.3-0.1-0.4-0.2l-0.6-1.7h-3.5L11.1,123.6z"/>
	<path class="st11" d="M25.6,114.4c0-0.1,0.1-0.2,0.2-0.2h1.5c0.1,0,0.2,0.1,0.2,0.2v9.3c0,0.1-0.1,0.2-0.2,0.2h-1.4
		c-0.2,0-0.3,0-0.4-0.2l-4.6-6.1v6.1c0,0.1-0.1,0.2-0.2,0.2h-1.5c-0.1,0-0.2-0.1-0.2-0.2v-9.3c0-0.1,0.1-0.2,0.2-0.2h1.4
		c0.2,0,0.3,0.1,0.4,0.2l4.6,6.1V114.4z"/>
	<path class="st11" d="M35.2,122.1h1.5c0.7,0,1.4-0.1,1.9-0.4c1-0.5,1.5-1.5,1.5-2.7c0-1-0.3-1.7-0.7-2.2c-0.6-0.6-1.5-0.9-2.6-0.9
		h-1.5V122.1z M40,123.1c-1,0.6-2.1,0.7-3.2,0.7h-3.4c-0.1,0-0.2-0.1-0.2-0.2v-9.3c0-0.1,0.1-0.2,0.2-0.2H37c1.5,0,2.9,0.3,4,1.5
		c0.7,0.8,1.2,1.8,1.2,3.4C42.2,120.7,41.5,122.3,40,123.1"/>
	<path class="st11" d="M45.5,114.2c0.1,0,0.2,0.1,0.2,0.2v9.3c0,0.1-0.1,0.2-0.2,0.2h-1.6c-0.1,0-0.2-0.1-0.2-0.2v-9.3
		c0-0.1,0.1-0.2,0.2-0.2H45.5z"/>
	<path class="st11" d="M54.7,114.2c0.1,0,0.2,0.1,0.2,0.2v1.4c0,0.1-0.1,0.2-0.2,0.2h-5v2.1H54c0.1,0,0.2,0.1,0.2,0.2v1.4
		c0,0.1-0.1,0.2-0.2,0.2h-4.3v2.1h5c0.1,0,0.2,0.1,0.2,0.2v1.4c0,0.1-0.1,0.2-0.2,0.2h-6.9c-0.1,0-0.2-0.1-0.2-0.2v-9.3
		c0-0.1,0.1-0.2,0.2-0.2H54.7z"/>
	<path class="st11" d="M63.8,114.7c0.1,0.1,0.1,0.2,0.1,0.3l-0.7,1.4c-0.1,0.1-0.2,0.1-0.3,0.1c-0.6-0.3-1.3-0.6-2.1-0.6
		c-1.7,0-3,1.4-3,3.1c0,1.8,1.2,3.2,3,3.2c0.8,0,1.6-0.2,2.1-0.6v-1.2h-2c-0.1,0-0.2-0.1-0.2-0.2v-1.4c0-0.1,0.1-0.2,0.2-0.2h3.7
		c0.1,0,0.2,0.1,0.2,0.2v4.8c0,0.1-0.1,0.2-0.2,0.2h-1.5c-0.1,0-0.2-0.1-0.2-0.2v-0.2c-0.6,0.3-1.4,0.5-2.3,0.5
		c-2.8,0-4.9-1.7-4.9-5c0-2.8,2.3-5,5.2-5C62.3,114,63.2,114.4,63.8,114.7"/>
	<path class="st11" d="M71.5,116c-1.7,0-3,1.3-3,3.1c0,1.7,1.3,3.1,3,3.1c1.7,0,3-1.3,3-3.1C74.5,117.3,73.3,116,71.5,116 M71.5,124
		c-2.8,0-5.2-2-5.2-5c0-3,2.4-5,5.2-5c2.8,0,5.2,2,5.2,5C76.7,122,74.3,124,71.5,124"/>
	<path class="st11" d="M148.4,61.4c0.1-0.1,0.2-0.2,0.4-0.2h1.9c0.2,0,0.3,0.2,0.1,0.4l-3.6,5.3v3.8c0,0.1-0.1,0.2-0.2,0.2h-1.6
		c-0.1,0-0.2-0.1-0.2-0.2v-3.8l-3.6-5.3c-0.1-0.2-0.1-0.4,0.1-0.4h1.9c0.2,0,0.3,0.1,0.4,0.2l2.2,3.4L148.4,61.4z"/>
	<path class="st11" d="M158.1,61.4c0-0.1,0.1-0.2,0.2-0.2h1.6c0.1,0,0.2,0.1,0.2,0.2V67c0,1.1-0.3,2-0.9,2.7
		c-0.7,0.8-1.9,1.3-3.3,1.3c-1.4,0-2.6-0.5-3.3-1.3c-0.6-0.7-0.9-1.6-0.9-2.7v-5.6c0-0.1,0.1-0.2,0.2-0.2h1.6c0.1,0,0.2,0.1,0.2,0.2
		v5.4c0,0.7,0.2,1.3,0.5,1.7c0.4,0.5,1,0.7,1.7,0.7c0.7,0,1.3-0.2,1.7-0.7c0.3-0.4,0.5-0.9,0.5-1.7V61.4z"/>
	<path class="st11" d="M172.1,70.6c0,0.1-0.1,0.2-0.2,0.2h-1.5c-0.1,0-0.2-0.1-0.2-0.2v-5.9l-2.1,3.6c-0.1,0.2-0.2,0.2-0.3,0.2h-1.2
		c-0.2,0-0.3-0.1-0.3-0.2l-2.1-3.6v5.9c0,0.1-0.1,0.2-0.2,0.2h-1.5c-0.1,0-0.2-0.1-0.2-0.2v-9.3c0-0.1,0.1-0.2,0.2-0.2h1.6
		c0.2,0,0.3,0,0.4,0.2l2.8,4.8l2.8-4.8c0.1-0.2,0.2-0.2,0.4-0.2h1.6c0.1,0,0.2,0.1,0.2,0.2V70.6z"/>
	<path class="st11" d="M177.6,63.6l-1.3,3.6h2.5L177.6,63.6z M175.2,70.6c-0.1,0.2-0.2,0.2-0.4,0.2h-1.6c-0.1,0-0.2-0.1-0.2-0.2
		c0,0,0-0.1,0-0.1l3.3-9.2c0-0.2,0.2-0.2,0.3-0.2h1.7c0.2,0,0.3,0.1,0.3,0.2l3.3,9.2c0,0.1,0,0.1,0,0.1c0,0.1-0.1,0.2-0.2,0.2h-1.6
		c-0.2,0-0.3-0.1-0.4-0.2l-0.6-1.7h-3.5L175.2,70.6z"/>
	<path class="st11" d="M233.8,61.2c0.1,0,0.2,0.1,0.2,0.2v1.4c0,0.1-0.1,0.2-0.2,0.2h-2.9v7.6c0,0.1-0.1,0.2-0.2,0.2h-1.6
		c-0.1,0-0.2-0.1-0.2-0.2V63H226c-0.1,0-0.2-0.1-0.2-0.2v-1.4c0-0.1,0.1-0.2,0.2-0.2H233.8z"/>
	<path class="st11" d="M241.5,61.4c0-0.1,0.1-0.2,0.2-0.2h1.6c0.1,0,0.2,0.1,0.2,0.2V67c0,1.1-0.3,2-0.9,2.7
		c-0.7,0.8-1.9,1.3-3.3,1.3c-1.4,0-2.6-0.5-3.3-1.3c-0.6-0.7-0.9-1.6-0.9-2.7v-5.6c0-0.1,0.1-0.2,0.2-0.2h1.6c0.1,0,0.2,0.1,0.2,0.2
		v5.4c0,0.7,0.2,1.3,0.5,1.7c0.4,0.5,1,0.7,1.7,0.7c0.7,0,1.3-0.2,1.7-0.7c0.3-0.4,0.5-0.9,0.5-1.7V61.4z"/>
	<path class="st11" d="M245,66c0-2.8,2.3-5,5.2-5c1.4,0,2.3,0.3,2.9,0.7c0.1,0.1,0.1,0.2,0.1,0.3l-0.7,1.4c-0.1,0.1-0.2,0.1-0.3,0.1
		c-0.6-0.3-1.3-0.6-2.1-0.6c-1.6,0-3,1.3-3,3.1c0,1.8,1.3,3.1,3,3.1c0.9,0,1.6-0.2,2.2-0.6c0.1-0.1,0.2-0.1,0.3,0.1l0.7,1.4
		c0.1,0.1,0,0.2-0.1,0.3c-0.8,0.4-1.7,0.7-3,0.7C247.1,71,245,69,245,66"/>
	<path class="st11" d="M254.3,70.1c-0.1-0.1-0.1-0.2-0.1-0.3l0.7-1.4c0.1-0.1,0.2-0.2,0.3-0.1c0.7,0.4,1.5,0.9,2.6,0.9
		c0.5,0,0.9-0.1,1.1-0.3c0.3-0.2,0.4-0.6,0.4-0.8c0-0.6-0.5-0.9-1.2-1.1c-0.8-0.3-1.7-0.5-2.6-1c-0.7-0.5-1.2-1.1-1.2-2.2
		c0-0.8,0.3-1.5,1-2c0.6-0.5,1.5-0.7,2.7-0.7c1.5,0,2.5,0.4,3.1,0.7c0.1,0.1,0.1,0.2,0.1,0.3l-0.7,1.4c-0.1,0.1-0.2,0.1-0.3,0.1
		c-0.7-0.4-1.5-0.7-2.4-0.7c-0.5,0-0.8,0.1-1.1,0.2c-0.2,0.2-0.4,0.4-0.4,0.7c0,0.5,0.5,0.8,1.2,1c0.9,0.3,1.9,0.5,2.7,1
		c0.6,0.4,1.1,1.1,1.1,2.2c0,1-0.4,1.7-1.1,2.2c-0.7,0.5-1.6,0.8-2.7,0.8C256.2,71,255,70.5,254.3,70.1"/>
	<path class="st11" d="M267.7,62.9c-1.7,0-3,1.3-3,3.1c0,1.7,1.3,3.1,3,3.1c1.7,0,3-1.3,3-3.1C270.7,64.3,269.5,62.9,267.7,62.9
		 M267.7,71c-2.8,0-5.2-2-5.2-5c0-3,2.4-5,5.2-5c2.8,0,5.2,2,5.2,5C272.9,69,270.5,71,267.7,71"/>
	<path class="st11" d="M281.1,61.4c0-0.1,0.1-0.2,0.2-0.2h1.5c0.1,0,0.2,0.1,0.2,0.2v9.3c0,0.1-0.1,0.2-0.2,0.2h-1.4
		c-0.2,0-0.3,0-0.4-0.2l-4.6-6.1v6.1c0,0.1-0.1,0.2-0.2,0.2h-1.5c-0.1,0-0.2-0.1-0.2-0.2v-9.3c0-0.1,0.1-0.2,0.2-0.2h1.4
		c0.2,0,0.3,0.1,0.4,0.2l4.6,6.1V61.4z"/>
	<path class="st11" d="M387,92.8c0.1,0,0.2,0.1,0.2,0.2v1.4c0,0.1-0.1,0.2-0.2,0.2h-5v2.1h4.3c0.1,0,0.2,0.1,0.2,0.2v1.4
		c0,0.1-0.1,0.2-0.2,0.2H382v2.1h5c0.1,0,0.2,0.1,0.2,0.2v1.4c0,0.1-0.1,0.2-0.2,0.2h-6.9c-0.1,0-0.2-0.1-0.2-0.2V93
		c0-0.1,0.1-0.2,0.2-0.2H387z"/>
	<path class="st11" d="M390.5,92.8c0.1,0,0.2,0.1,0.2,0.2v7.7h4.1c0.1,0,0.2,0.1,0.2,0.2v1.4c0,0.1-0.1,0.2-0.2,0.2h-6
		c-0.1,0-0.2-0.1-0.2-0.2V93c0-0.1,0.1-0.2,0.2-0.2H390.5z"/>
	<path class="st11" d="M405.1,94.9c-0.3-0.2-0.7-0.3-1.1-0.3h-1.9v3.2h1.9c0.4,0,0.8-0.1,1.1-0.3c0.4-0.2,0.6-0.7,0.6-1.3
		C405.8,95.5,405.5,95.1,405.1,94.9 M404.3,92.8c0.8,0,1.6,0.2,2.3,0.7c0.7,0.6,1.2,1.5,1.2,2.7c0,1.2-0.5,2.1-1.3,2.7
		c-0.7,0.5-1.5,0.7-2.2,0.7h-2.2v2.7c0,0.1-0.1,0.2-0.2,0.2h-1.6c-0.1,0-0.2-0.1-0.2-0.2V93c0-0.1,0.1-0.2,0.2-0.2H404.3z"/>
	<path class="st11" d="M412.3,95.2l-1.3,3.6h2.5L412.3,95.2z M409.9,102.2c-0.1,0.2-0.2,0.2-0.4,0.2H408c-0.1,0-0.2-0.1-0.2-0.2
		c0,0,0-0.1,0-0.1l3.3-9.2c0-0.2,0.2-0.2,0.3-0.2h1.7c0.2,0,0.3,0.1,0.3,0.2l3.3,9.2c0,0.1,0,0.1,0,0.1c0,0.1-0.1,0.2-0.2,0.2h-1.6
		c-0.2,0-0.3-0.1-0.4-0.2l-0.6-1.7h-3.5L409.9,102.2z"/>
	<path class="st11" d="M417.4,101.7c-0.1-0.1-0.1-0.2-0.1-0.3l0.7-1.4c0.1-0.1,0.2-0.2,0.3-0.1c0.7,0.4,1.5,0.9,2.6,0.9
		c0.5,0,0.9-0.1,1.1-0.3c0.3-0.2,0.4-0.6,0.4-0.8c0-0.6-0.5-0.9-1.2-1.1c-0.8-0.3-1.7-0.5-2.6-1c-0.7-0.5-1.2-1.1-1.2-2.2
		c0-0.8,0.3-1.5,1-2c0.6-0.5,1.5-0.7,2.7-0.7c1.5,0,2.5,0.4,3.1,0.7c0.1,0.1,0.1,0.2,0.1,0.3l-0.7,1.4c-0.1,0.1-0.2,0.1-0.3,0.1
		c-0.7-0.4-1.5-0.7-2.4-0.7c-0.5,0-0.8,0.1-1.1,0.2c-0.2,0.2-0.4,0.4-0.4,0.7c0,0.5,0.5,0.8,1.2,1c0.9,0.3,1.9,0.5,2.7,1
		c0.6,0.4,1.1,1.1,1.1,2.2c0,1-0.4,1.7-1.1,2.2c-0.7,0.5-1.6,0.8-2.7,0.8C419.2,102.6,418.1,102.1,417.4,101.7"/>
	<path class="st11" d="M430.8,94.6c-1.7,0-3,1.3-3,3.1c0,1.7,1.3,3.1,3,3.1c1.7,0,3-1.3,3-3.1C433.8,95.9,432.5,94.6,430.8,94.6
		 M430.8,102.6c-2.8,0-5.2-2-5.2-5c0-3,2.4-5,5.2-5c2.8,0,5.2,2,5.2,5C436,100.6,433.6,102.6,430.8,102.6"/>
	<path class="st11" d="M523.6,96.3c-0.3-0.1-0.7-0.2-1.2-0.2h-1.2v2.4h1.5c0.3,0,0.7,0,0.9-0.1c0.4-0.2,0.7-0.5,0.7-1.1
		C524.3,96.9,524.1,96.5,523.6,96.3 M523.1,92.4c-0.2-0.2-0.5-0.2-0.8-0.2h-1.1v2.3h1c0.3,0,0.6,0,0.8-0.1c0.3-0.2,0.5-0.5,0.5-1
		C523.5,92.9,523.4,92.6,523.1,92.4 M523.2,100.2h-3.8c-0.1,0-0.2-0.1-0.2-0.2v-9.3c0-0.1,0.1-0.2,0.2-0.2h2.9
		c0.8,0,1.6,0.1,2.4,0.6c0.6,0.4,0.9,1,0.9,1.8c0,1-0.4,1.7-1.2,2.1v0.1c1.4,0.3,2,1.2,2,2.5C526.4,99.4,524.8,100.2,523.2,100.2"/>
	<path class="st11" d="M529.8,90.6c0.1,0,0.2,0.1,0.2,0.2v9.3c0,0.1-0.1,0.2-0.2,0.2h-1.6c-0.1,0-0.2-0.1-0.2-0.2v-9.3
		c0-0.1,0.1-0.2,0.2-0.2H529.8z"/>
	<path class="st11" d="M539.6,91.1c0.1,0.1,0.1,0.2,0.1,0.3l-0.7,1.4c-0.1,0.1-0.2,0.1-0.3,0.1c-0.6-0.3-1.3-0.6-2.1-0.6
		c-1.7,0-3,1.4-3,3.1c0,1.8,1.2,3.2,3,3.2c0.8,0,1.6-0.2,2.1-0.6v-1.2h-2c-0.1,0-0.2-0.1-0.2-0.2v-1.4c0-0.1,0.1-0.2,0.2-0.2h3.7
		c0.1,0,0.2,0.1,0.2,0.2v4.8c0,0.1-0.1,0.2-0.2,0.2h-1.5c-0.1,0-0.2-0.1-0.2-0.2v-0.2c-0.6,0.3-1.3,0.5-2.3,0.5
		c-2.8,0-4.9-1.7-4.9-5c0-2.8,2.3-5,5.2-5C538.1,90.4,539,90.8,539.6,91.1"/>
	<path class="st11" d="M550.7,96.3c-0.3-0.1-0.7-0.2-1.2-0.2h-1.2v2.4h1.5c0.3,0,0.7,0,0.9-0.1c0.4-0.2,0.7-0.5,0.7-1.1
		C551.3,96.9,551.1,96.5,550.7,96.3 M550.1,92.4c-0.2-0.2-0.5-0.2-0.8-0.2h-1.1v2.3h1c0.3,0,0.6,0,0.8-0.1c0.3-0.2,0.5-0.5,0.5-1
		C550.6,92.9,550.4,92.6,550.1,92.4 M550.2,100.2h-3.8c-0.1,0-0.2-0.1-0.2-0.2v-9.3c0-0.1,0.1-0.2,0.2-0.2h2.9
		c0.8,0,1.6,0.1,2.4,0.6c0.6,0.4,0.9,1,0.9,1.8c0,1-0.4,1.7-1.2,2.1v0.1c1.4,0.3,2,1.2,2,2.5C553.4,99.4,551.8,100.2,550.2,100.2"/>
	<path class="st11" d="M562.1,90.6c0.1,0,0.2,0.1,0.2,0.2v1.4c0,0.1-0.1,0.2-0.2,0.2h-5v2.1h4.3c0.1,0,0.2,0.1,0.2,0.2v1.4
		c0,0.1-0.1,0.2-0.2,0.2H557v2.1h5c0.1,0,0.2,0.1,0.2,0.2v1.4c0,0.1-0.1,0.2-0.2,0.2h-6.9c-0.1,0-0.2-0.1-0.2-0.2v-9.3
		c0-0.1,0.1-0.2,0.2-0.2H562.1z"/>
	<path class="st11" d="M570.4,90.8c0-0.1,0.1-0.2,0.2-0.2h1.5c0.1,0,0.2,0.1,0.2,0.2v9.3c0,0.1-0.1,0.2-0.2,0.2h-1.4
		c-0.2,0-0.3,0-0.4-0.2l-4.6-6.1v6.1c0,0.1-0.1,0.2-0.2,0.2H564c-0.1,0-0.2-0.1-0.2-0.2v-9.3c0-0.1,0.1-0.2,0.2-0.2h1.4
		c0.2,0,0.3,0.1,0.4,0.2l4.6,6.1V90.8z"/>
	<path class="st11" d="M576.4,98.5h1.5c0.7,0,1.4-0.1,1.9-0.4c1-0.5,1.5-1.5,1.5-2.7c0-1-0.3-1.7-0.7-2.2c-0.6-0.6-1.5-0.9-2.6-0.9
		h-1.5V98.5z M581.2,99.5c-1,0.6-2.1,0.7-3.2,0.7h-3.4c-0.1,0-0.2-0.1-0.2-0.2v-9.3c0-0.1,0.1-0.2,0.2-0.2h3.6c1.5,0,2.9,0.3,4,1.5
		c0.7,0.8,1.2,1.8,1.2,3.4C583.3,97.1,582.7,98.7,581.2,99.5"/>
	<path class="st11" d="M588.8,186.1h1.5c0.7,0,1.4-0.1,1.9-0.4c1-0.5,1.5-1.5,1.5-2.7c0-1-0.3-1.7-0.7-2.2c-0.6-0.6-1.5-0.9-2.6-0.9
		h-1.5V186.1z M593.6,187.1c-1,0.6-2.1,0.7-3.2,0.7h-3.4c-0.1,0-0.2-0.1-0.2-0.2v-9.3c0-0.1,0.1-0.2,0.2-0.2h3.6
		c1.5,0,2.9,0.3,4,1.5c0.7,0.8,1.2,1.8,1.2,3.4C595.7,184.7,595.1,186.3,593.6,187.1"/>
	<path class="st11" d="M604.3,178.1c0.1,0,0.2,0.1,0.2,0.2v1.4c0,0.1-0.1,0.2-0.2,0.2h-5v2.1h4.3c0.1,0,0.2,0.1,0.2,0.2v1.4
		c0,0.1-0.1,0.2-0.2,0.2h-4.3v2.1h5c0.1,0,0.2,0.1,0.2,0.2v1.4c0,0.1-0.1,0.2-0.2,0.2h-6.9c-0.1,0-0.2-0.1-0.2-0.2v-9.3
		c0-0.1,0.1-0.2,0.2-0.2H604.3z"/>
	<path class="st11" d="M607.9,178.1c0.1,0,0.2,0.1,0.2,0.2v7.7h4.1c0.1,0,0.2,0.1,0.2,0.2v1.4c0,0.1-0.1,0.2-0.2,0.2h-6
		c-0.1,0-0.2-0.1-0.2-0.2v-9.3c0-0.1,0.1-0.2,0.2-0.2H607.9z"/>
	<path class="st11" d="M619.5,179.9v2.9h2c0.5,0,1,0,1.3-0.2c0.3-0.2,0.6-0.6,0.6-1.2s-0.2-0.9-0.5-1.2c-0.3-0.2-0.7-0.3-1.1-0.3
		H619.5z M623.4,184.2l2.1,3.3c0.1,0.2,0.1,0.4-0.1,0.4h-1.8c-0.2,0-0.3,0-0.4-0.2l-1.9-3.1h-1.8v3.1c0,0.1-0.1,0.2-0.2,0.2h-1.6
		c-0.1,0-0.2-0.1-0.2-0.2v-9.3c0-0.1,0.1-0.2,0.2-0.2h4.2c0.9,0,1.8,0.2,2.4,0.7c0.7,0.5,1.1,1.4,1.1,2.5c0,0.9-0.3,1.7-1.1,2.4
		C624,183.9,623.7,184.1,623.4,184.2"/>
	<path class="st11" d="M628.7,178.1c0.1,0,0.2,0.1,0.2,0.2v9.3c0,0.1-0.1,0.2-0.2,0.2h-1.6c-0.1,0-0.2-0.1-0.2-0.2v-9.3
		c0-0.1,0.1-0.2,0.2-0.2H628.7z"/>
	<path class="st11" d="M635.6,179.9c-1.7,0-3,1.3-3,3.1c0,1.7,1.3,3.1,3,3.1c1.7,0,3-1.3,3-3.1C638.6,181.3,637.4,179.9,635.6,179.9
		 M635.6,188c-2.8,0-5.2-2-5.2-5c0-3,2.4-5,5.2-5c2.8,0,5.2,2,5.2,5C640.8,186,638.4,188,635.6,188"/>
	<path class="st11" d="M664.8,128.4c0.1,0,0.2,0.1,0.2,0.2v7.7h4.1c0.1,0,0.2,0.1,0.2,0.2v1.4c0,0.1-0.1,0.2-0.2,0.2h-6
		c-0.1,0-0.2-0.1-0.2-0.2v-9.3c0-0.1,0.1-0.2,0.2-0.2H664.8z"/>
	<path class="st11" d="M674.2,130.8l-1.3,3.6h2.5L674.2,130.8z M671.9,137.8c-0.1,0.2-0.2,0.2-0.4,0.2h-1.6c-0.1,0-0.2-0.1-0.2-0.2
		c0,0,0-0.1,0-0.1l3.3-9.2c0-0.2,0.2-0.2,0.3-0.2h1.7c0.2,0,0.3,0.1,0.3,0.2l3.3,9.2c0,0.1,0,0.1,0,0.1c0,0.1-0.1,0.2-0.2,0.2h-1.6
		c-0.2,0-0.3-0.1-0.4-0.2l-0.6-1.7h-3.5L671.9,137.8z"/>
	<path class="st11" d="M681.8,130.1v2.9h2c0.5,0,1,0,1.3-0.2c0.3-0.2,0.6-0.6,0.6-1.2s-0.2-0.9-0.5-1.2c-0.3-0.2-0.7-0.3-1.1-0.3
		H681.8z M685.7,134.4l2.1,3.3c0.1,0.2,0.1,0.4-0.1,0.4h-1.8c-0.2,0-0.3,0-0.4-0.2l-1.9-3.1h-1.8v3.1c0,0.1-0.1,0.2-0.2,0.2H680
		c-0.1,0-0.2-0.1-0.2-0.2v-9.3c0-0.1,0.1-0.2,0.2-0.2h4.2c0.9,0,1.8,0.2,2.4,0.7c0.7,0.5,1.1,1.4,1.1,2.5c0,0.9-0.3,1.7-1.1,2.4
		C686.3,134.1,686,134.3,685.7,134.4"/>
	<path class="st11" d="M696.3,128.4c0.1,0,0.2,0.1,0.2,0.2v1.4c0,0.1-0.1,0.2-0.2,0.2h-5v2.1h4.3c0.1,0,0.2,0.1,0.2,0.2v1.4
		c0,0.1-0.1,0.2-0.2,0.2h-4.3v2.1h5c0.1,0,0.2,0.1,0.2,0.2v1.4c0,0.1-0.1,0.2-0.2,0.2h-6.9c-0.1,0-0.2-0.1-0.2-0.2v-9.3
		c0-0.1,0.1-0.2,0.2-0.2H696.3z"/>
	<path class="st11" d="M700,136.3h1.5c0.7,0,1.4-0.1,1.9-0.4c1-0.5,1.5-1.5,1.5-2.7c0-1-0.3-1.7-0.7-2.2c-0.6-0.6-1.5-0.9-2.6-0.9
		H700V136.3z M704.8,137.3c-1,0.6-2.1,0.7-3.2,0.7h-3.4c-0.1,0-0.2-0.1-0.2-0.2v-9.3c0-0.1,0.1-0.2,0.2-0.2h3.6c1.5,0,2.9,0.3,4,1.5
		c0.7,0.8,1.2,1.8,1.2,3.4C707,134.9,706.4,136.5,704.8,137.3"/>
	<path class="st11" d="M713.3,130.1c-1.7,0-3,1.3-3,3.1c0,1.7,1.3,3.1,3,3.1c1.7,0,3-1.3,3-3.1C716.3,131.5,715.1,130.1,713.3,130.1
		 M713.3,138.2c-2.8,0-5.2-2-5.2-5c0-3,2.4-5,5.2-5c2.8,0,5.2,2,5.2,5C718.5,136.2,716.1,138.2,713.3,138.2"/>
	<path class="st11" d="M656.1,281.3v2.9h2c0.5,0,1,0,1.3-0.2c0.3-0.2,0.6-0.6,0.6-1.2c0-0.6-0.2-0.9-0.5-1.2
		c-0.3-0.2-0.7-0.3-1.1-0.3H656.1z M660.1,285.6l2.1,3.3c0.1,0.2,0.1,0.4-0.1,0.4h-1.8c-0.2,0-0.3,0-0.4-0.2l-1.9-3.1h-1.8v3.1
		c0,0.1-0.1,0.2-0.2,0.2h-1.6c-0.1,0-0.2-0.1-0.2-0.2v-9.3c0-0.1,0.1-0.2,0.2-0.2h4.2c0.9,0,1.8,0.2,2.4,0.7
		c0.7,0.5,1.1,1.4,1.1,2.5c0,0.9-0.3,1.7-1.1,2.4C660.7,285.4,660.4,285.5,660.1,285.6"/>
	<path class="st11" d="M665.4,279.6c0.1,0,0.2,0.1,0.2,0.2v9.3c0,0.1-0.1,0.2-0.2,0.2h-1.6c-0.1,0-0.2-0.1-0.2-0.2v-9.3
		c0-0.1,0.1-0.2,0.2-0.2H665.4z"/>
	<path class="st11" d="M672.3,281.4c-1.7,0-3,1.3-3,3.1c0,1.7,1.3,3.1,3,3.1c1.7,0,3-1.3,3-3.1C675.3,282.7,674,281.4,672.3,281.4
		 M672.3,289.4c-2.8,0-5.2-2-5.2-5c0-3,2.4-5,5.2-5c2.8,0,5.2,2,5.2,5C677.5,287.4,675.1,289.4,672.3,289.4"/>
	<path class="st11" d="M690.4,280.1c0.1,0.1,0.1,0.2,0.1,0.3l-0.7,1.4c-0.1,0.1-0.2,0.1-0.3,0.1c-0.6-0.3-1.3-0.6-2.1-0.6
		c-1.7,0-3,1.4-3,3.1c0,1.8,1.2,3.2,3,3.2c0.8,0,1.6-0.2,2.1-0.6v-1.2h-2c-0.1,0-0.2-0.1-0.2-0.2v-1.4c0-0.1,0.1-0.2,0.2-0.2h3.7
		c0.1,0,0.2,0.1,0.2,0.2v4.8c0,0.1-0.1,0.2-0.2,0.2h-1.5c-0.1,0-0.2-0.1-0.2-0.2v-0.2c-0.6,0.3-1.3,0.5-2.3,0.5
		c-2.8,0-4.9-1.8-4.9-5c0-2.8,2.3-5,5.2-5C688.8,279.5,689.7,279.8,690.4,280.1"/>
	<path class="st11" d="M695.3,281.3v2.9h2c0.5,0,1,0,1.3-0.2c0.3-0.2,0.6-0.6,0.6-1.2c0-0.6-0.2-0.9-0.5-1.2
		c-0.3-0.2-0.7-0.3-1.1-0.3H695.3z M699.3,285.6l2.1,3.3c0.1,0.2,0.1,0.4-0.1,0.4h-1.8c-0.2,0-0.3,0-0.4-0.2l-1.9-3.1h-1.8v3.1
		c0,0.1-0.1,0.2-0.2,0.2h-1.6c-0.1,0-0.2-0.1-0.2-0.2v-9.3c0-0.1,0.1-0.2,0.2-0.2h4.2c0.9,0,1.8,0.2,2.4,0.7
		c0.7,0.5,1.1,1.4,1.1,2.5c0,0.9-0.3,1.7-1.1,2.4C699.9,285.4,699.6,285.5,699.3,285.6"/>
	<path class="st11" d="M706.3,282l-1.3,3.6h2.5L706.3,282z M704,289c-0.1,0.2-0.2,0.2-0.4,0.2H702c-0.1,0-0.2-0.1-0.2-0.2
		c0,0,0-0.1,0-0.1l3.3-9.2c0-0.2,0.2-0.2,0.3-0.2h1.7c0.2,0,0.3,0.1,0.3,0.2l3.3,9.2c0,0.1,0,0.1,0,0.1c0,0.1-0.1,0.2-0.2,0.2H709
		c-0.2,0-0.3-0.1-0.4-0.2l-0.6-1.7h-3.5L704,289z"/>
	<path class="st11" d="M718.5,279.8c0-0.1,0.1-0.2,0.2-0.2h1.5c0.1,0,0.2,0.1,0.2,0.2v9.3c0,0.1-0.1,0.2-0.2,0.2h-1.4
		c-0.2,0-0.3,0-0.4-0.2l-4.6-6.1v6.1c0,0.1-0.1,0.2-0.2,0.2h-1.5c-0.1,0-0.2-0.1-0.2-0.2v-9.3c0-0.1,0.1-0.2,0.2-0.2h1.4
		c0.2,0,0.3,0.1,0.4,0.2l4.6,6.1V279.8z"/>
	<path class="st11" d="M724.4,287.6h1.5c0.7,0,1.4-0.1,1.9-0.4c1-0.5,1.4-1.5,1.4-2.7c0-1-0.3-1.7-0.7-2.2c-0.6-0.6-1.5-0.9-2.6-0.9
		h-1.5V287.6z M729.2,288.6c-1,0.6-2.1,0.7-3.2,0.7h-3.4c-0.1,0-0.2-0.1-0.2-0.2v-9.3c0-0.1,0.1-0.2,0.2-0.2h3.6
		c1.5,0,2.9,0.3,4,1.5c0.7,0.8,1.2,1.8,1.2,3.4C731.4,286.2,730.8,287.7,729.2,288.6"/>
	<path class="st11" d="M740,279.6c0.1,0,0.2,0.1,0.2,0.2v1.4c0,0.1-0.1,0.2-0.2,0.2h-5v2.1h4.3c0.1,0,0.2,0.1,0.2,0.2v1.4
		c0,0.1-0.1,0.2-0.2,0.2H735v2.1h5c0.1,0,0.2,0.1,0.2,0.2v1.4c0,0.1-0.1,0.2-0.2,0.2h-6.9c-0.1,0-0.2-0.1-0.2-0.2v-9.3
		c0-0.1,0.1-0.2,0.2-0.2H740z"/>
	<path class="st11" d="M677,304.6c-0.1,0.2-0.2,0.2-0.3,0.2H675c-0.2,0-0.3-0.1-0.3-0.2l-3.5-9.2c-0.1-0.2,0-0.3,0.2-0.3h1.7
		c0.2,0,0.3,0.1,0.4,0.2l2.5,6.9h0l2.5-6.9c0.1-0.2,0.2-0.2,0.4-0.2h1.7c0.2,0,0.2,0.1,0.2,0.3L677,304.6z"/>
	<path class="st11" d="M684.5,297.6l-1.3,3.6h2.5L684.5,297.6z M682.2,304.5c-0.1,0.2-0.2,0.2-0.4,0.2h-1.6c-0.1,0-0.2-0.1-0.2-0.2
		c0,0,0-0.1,0-0.1l3.3-9.2c0-0.2,0.2-0.2,0.3-0.2h1.7c0.2,0,0.3,0.1,0.3,0.2l3.3,9.2c0,0.1,0,0.1,0,0.1c0,0.1-0.1,0.2-0.2,0.2h-1.6
		c-0.2,0-0.3-0.1-0.4-0.2l-0.6-1.7h-3.5L682.2,304.5z"/>
	<path class="st11" d="M691.9,295.1c0.1,0,0.2,0.1,0.2,0.2v7.7h4.1c0.1,0,0.2,0.1,0.2,0.2v1.4c0,0.1-0.1,0.2-0.2,0.2h-6
		c-0.1,0-0.2-0.1-0.2-0.2v-9.3c0-0.1,0.1-0.2,0.2-0.2H691.9z"/>
	<path class="st11" d="M699.6,295.1c0.1,0,0.2,0.1,0.2,0.2v7.7h4.1c0.1,0,0.2,0.1,0.2,0.2v1.4c0,0.1-0.1,0.2-0.2,0.2h-6
		c-0.1,0-0.2-0.1-0.2-0.2v-9.3c0-0.1,0.1-0.2,0.2-0.2H699.6z"/>
	<path class="st11" d="M712.5,295.1c0.1,0,0.2,0.1,0.2,0.2v1.4c0,0.1-0.1,0.2-0.2,0.2h-5v2.1h4.3c0.1,0,0.2,0.1,0.2,0.2v1.4
		c0,0.1-0.1,0.2-0.2,0.2h-4.3v2.1h5c0.1,0,0.2,0.1,0.2,0.2v1.4c0,0.1-0.1,0.2-0.2,0.2h-6.9c-0.1,0-0.2-0.1-0.2-0.2v-9.3
		c0-0.1,0.1-0.2,0.2-0.2H712.5z"/>
	<path class="st11" d="M720.4,295.3c0.1-0.1,0.2-0.2,0.4-0.2h1.9c0.2,0,0.3,0.2,0.1,0.4l-3.6,5.3v3.8c0,0.1-0.1,0.2-0.2,0.2h-1.6
		c-0.1,0-0.2-0.1-0.2-0.2v-3.8l-3.6-5.3c-0.1-0.2-0.1-0.4,0.1-0.4h1.9c0.2,0,0.3,0.1,0.4,0.2l2.2,3.4L720.4,295.3z"/>
	<path class="st12" d="M19.2,13.8c0-2.3,1.9-4.1,4.3-4.1c1.1,0,1.9,0.3,2.4,0.6c0.1,0,0.1,0.1,0.1,0.2l-0.4,0.9
		c0,0.1-0.1,0.1-0.2,0.1c-0.5-0.3-1.1-0.5-2-0.5c-1.5,0-2.9,1.3-2.9,2.9c0,1.8,1.3,3,2.9,3c0.9,0,1.5-0.3,2-0.5c0.1,0,0.1,0,0.2,0
		l0.4,0.9c0,0.1,0,0.1-0.1,0.2c-0.6,0.3-1.4,0.6-2.5,0.6C20.9,17.9,19.2,16.3,19.2,13.8"/>
	<path class="st12" d="M30.2,16.8v-1.5c-0.3,0-1,0-1.4,0.2c-0.4,0.1-0.7,0.4-0.7,0.8c0,0.3,0.1,0.5,0.3,0.6c0.2,0.1,0.5,0.2,0.7,0.2
		C29.5,17.1,29.9,17,30.2,16.8 M27.7,13.7c-0.1,0-0.2,0-0.2,0l-0.3-0.6c0-0.1,0-0.1,0.1-0.2c0.5-0.4,1.3-0.6,2.1-0.6
		c0.5,0,1.2,0.1,1.6,0.6c0.3,0.3,0.4,0.8,0.4,1.4v3.3c0,0.1-0.1,0.1-0.1,0.1h-0.8c-0.1,0-0.1-0.1-0.1-0.1v-0.1h0
		c-0.5,0.3-1,0.4-1.5,0.4c-0.5,0-0.9-0.1-1.3-0.4c-0.3-0.3-0.6-0.7-0.6-1.2c0-0.7,0.4-1.1,1-1.4c0.7-0.3,1.6-0.4,2.3-0.4v-0.1
		c0-0.4-0.1-0.6-0.2-0.8c-0.2-0.2-0.5-0.3-0.8-0.3C28.6,13.2,28.1,13.5,27.7,13.7"/>
	<path class="st12" d="M33.1,9.8h0.9c0.1,0,0.1,0.1,0.1,0.2v7.8c0,0.1-0.1,0.1-0.1,0.1h-0.9c-0.1,0-0.2-0.1-0.2-0.1V9.9
		C33,9.8,33.1,9.8,33.1,9.8"/>
	<path class="st12" d="M36,12.4h0.9c0.1,0,0.1,0.1,0.1,0.1v5.1c0,0.1-0.1,0.1-0.1,0.1H36c-0.1,0-0.2-0.1-0.2-0.1v-5.1
		C35.8,12.5,35.9,12.4,36,12.4 M35.7,10c0-0.4,0.3-0.7,0.7-0.7c0.4,0,0.7,0.3,0.7,0.7c0,0.4-0.3,0.7-0.7,0.7
		C36,10.7,35.7,10.4,35.7,10"/>
	<path class="st12" d="M40.4,10.9c-0.2,0.2-0.2,0.5-0.2,0.9v0.6h1.4c0.1,0,0.1,0.1,0.1,0.1v0.7c0,0.1-0.1,0.1-0.1,0.1h-1.4v4.3
		c0,0.1-0.1,0.1-0.2,0.1h-0.9c-0.1,0-0.1-0.1-0.1-0.1v-4.3h-0.6c-0.1,0-0.2-0.1-0.2-0.1v-0.7c0-0.1,0.1-0.1,0.2-0.1h0.6v-0.7
		c0-0.6,0.1-1.2,0.5-1.6c0.3-0.3,0.7-0.5,1.2-0.5c0.7,0,1.3,0.2,1.7,0.5c0.1,0,0.1,0.1,0.1,0.2L42.1,11c0,0.1-0.1,0.1-0.2,0
		c-0.3-0.2-0.6-0.3-1-0.3C40.7,10.7,40.5,10.8,40.4,10.9"/>
	<path class="st12" d="M43.7,16.4c0.3,0.3,0.7,0.5,1.2,0.5c0.5,0,0.9-0.2,1.2-0.5c0.3-0.3,0.5-0.8,0.5-1.3c0-0.5-0.2-1-0.5-1.3
		c-0.3-0.3-0.7-0.5-1.2-0.5c-0.5,0-0.9,0.2-1.2,0.5c-0.3,0.3-0.5,0.8-0.5,1.3C43.2,15.6,43.4,16.1,43.7,16.4 M42.8,13.1
		c0.5-0.5,1.2-0.8,2-0.8c0.8,0,1.5,0.3,2,0.8c0.5,0.5,0.8,1.2,0.8,2c0,0.8-0.3,1.6-0.8,2c-0.5,0.5-1.2,0.8-2,0.8
		c-0.8,0-1.5-0.3-2-0.8c-0.5-0.5-0.8-1.2-0.8-2C42,14.3,42.3,13.6,42.8,13.1"/>
	<path class="st12" d="M50.6,13.8c-0.3,0.4-0.3,0.9-0.3,1.4v2.5c0,0.1-0.1,0.1-0.1,0.1h-0.9c-0.1,0-0.2-0.1-0.2-0.1v-5.1
		c0-0.1,0.1-0.1,0.2-0.1h0.9c0.1,0,0.2,0.1,0.2,0.1v0.6h0c0.1-0.2,0.3-0.4,0.4-0.5c0.3-0.2,0.6-0.3,1-0.3c0.3,0,0.6,0.1,0.8,0.2
		c0.2,0.1,0.4,0.2,0.5,0.4c0.1,0.1,0.1,0.2,0,0.2l-0.5,0.6c0,0-0.1,0.1-0.2,0c-0.1-0.1-0.2-0.2-0.4-0.2c-0.1-0.1-0.3-0.1-0.5-0.1
		C51.1,13.3,50.8,13.5,50.6,13.8"/>
	<path class="st12" d="M55.3,14c-0.2,0.3-0.3,0.8-0.3,1.2v2.5c0,0.1-0.1,0.1-0.1,0.1H54c-0.1,0-0.2-0.1-0.2-0.1v-5.1
		c0-0.1,0.1-0.1,0.2-0.1h0.9c0.1,0,0.2,0.1,0.2,0.1v0.7h0c0.1-0.2,0.3-0.4,0.6-0.6c0.3-0.2,0.7-0.3,1.1-0.3c0.6,0,1.2,0.2,1.6,0.5
		c0.4,0.4,0.6,0.9,0.6,1.8v3.1c0,0.1-0.1,0.1-0.1,0.1h-0.9c-0.1,0-0.1-0.1-0.1-0.1v-2.8c0-0.5-0.1-0.9-0.3-1.2
		c-0.2-0.2-0.5-0.3-0.9-0.3C56,13.3,55.6,13.6,55.3,14"/>
	<path class="st12" d="M60.6,12.4h0.9c0.1,0,0.1,0.1,0.1,0.1v5.1c0,0.1-0.1,0.1-0.1,0.1h-0.9c-0.1,0-0.2-0.1-0.2-0.1v-5.1
		C60.5,12.5,60.6,12.4,60.6,12.4 M60.4,10c0-0.4,0.3-0.7,0.7-0.7c0.4,0,0.7,0.3,0.7,0.7c0,0.4-0.3,0.7-0.7,0.7
		C60.7,10.7,60.4,10.4,60.4,10"/>
	<path class="st12" d="M66.3,16.8v-1.5c-0.3,0-1,0-1.4,0.2c-0.4,0.1-0.7,0.4-0.7,0.8c0,0.3,0.1,0.5,0.3,0.6c0.2,0.1,0.5,0.2,0.7,0.2
		C65.6,17.1,65.9,17,66.3,16.8 M63.7,13.7c-0.1,0-0.2,0-0.2,0l-0.3-0.6c0-0.1,0-0.1,0.1-0.2c0.5-0.4,1.3-0.6,2.1-0.6
		c0.5,0,1.2,0.1,1.6,0.6c0.3,0.3,0.4,0.8,0.4,1.4v3.3c0,0.1-0.1,0.1-0.1,0.1h-0.8c-0.1,0-0.1-0.1-0.1-0.1v-0.1h0
		c-0.5,0.3-1,0.4-1.5,0.4c-0.5,0-0.9-0.1-1.3-0.4c-0.3-0.3-0.6-0.7-0.6-1.2c0-0.7,0.4-1.1,1-1.4c0.7-0.3,1.6-0.4,2.3-0.4v-0.1
		c0-0.4-0.1-0.6-0.2-0.8c-0.2-0.2-0.5-0.3-0.8-0.3C64.7,13.2,64.1,13.5,63.7,13.7"/>
	<path class="st12" d="M139,9.9c0-0.1,0.1-0.2,0.1-0.2h1c0.1,0,0.2,0.1,0.2,0.2v7.8c0,0.1-0.1,0.1-0.2,0.1h-0.9
		c-0.1,0-0.2,0-0.3-0.2l-4.5-5.7v5.7c0,0.1-0.1,0.1-0.1,0.1h-1c-0.1,0-0.1-0.1-0.1-0.1V9.9c0-0.1,0.1-0.2,0.1-0.2h0.9
		c0.1,0,0.2,0,0.3,0.2l4.5,5.7V9.9z"/>
	<path class="st12" d="M145.7,14.7c0-0.4-0.1-0.7-0.4-1c-0.2-0.3-0.6-0.4-1-0.4c-0.5,0-0.9,0.2-1.1,0.4c-0.2,0.2-0.3,0.6-0.4,0.9
		H145.7z M146.1,16.6c0.1-0.1,0.2,0,0.2,0l0.3,0.6c0,0.1,0,0.1-0.1,0.2c-0.4,0.3-1.2,0.6-2,0.6c-0.9,0-1.6-0.3-2.1-0.8
		c-0.5-0.5-0.7-1.2-0.7-2c0-0.8,0.3-1.5,0.8-2c0.4-0.5,1.1-0.8,2-0.8c0.9,0,1.6,0.4,2,0.9c0.4,0.5,0.6,1.2,0.5,2
		c0,0.1-0.1,0.2-0.2,0.2h-3.8c0,0.4,0.2,0.8,0.4,1c0.3,0.3,0.7,0.5,1.3,0.5C145.2,17,145.7,16.8,146.1,16.6"/>
	<path class="st12" d="M150.9,17.7c0,0.1-0.1,0.2-0.2,0.2h-1.1c-0.1,0-0.2,0-0.2-0.2l-2-5.1c0-0.1,0-0.2,0.1-0.2h1
		c0.1,0,0.2,0,0.2,0.2l1.4,4.1h0l1.4-4.1c0-0.1,0.1-0.2,0.2-0.2h1c0.1,0,0.1,0.1,0.1,0.2L150.9,17.7z"/>
	<path class="st12" d="M156.6,16.8v-1.5c-0.3,0-1,0-1.4,0.2c-0.4,0.1-0.7,0.4-0.7,0.8c0,0.3,0.1,0.5,0.3,0.6
		c0.2,0.1,0.5,0.2,0.7,0.2C155.9,17.1,156.3,17,156.6,16.8 M154,13.7c-0.1,0-0.2,0-0.2,0l-0.3-0.6c0-0.1,0-0.1,0.1-0.2
		c0.5-0.4,1.3-0.6,2.1-0.6c0.5,0,1.2,0.1,1.6,0.6c0.3,0.3,0.4,0.8,0.4,1.4v3.3c0,0.1-0.1,0.1-0.1,0.1h-0.8c-0.1,0-0.1-0.1-0.1-0.1
		v-0.1h0c-0.5,0.3-1,0.4-1.5,0.4c-0.5,0-0.9-0.1-1.3-0.4c-0.3-0.3-0.6-0.7-0.6-1.2c0-0.7,0.4-1.1,1-1.4c0.7-0.3,1.6-0.4,2.3-0.4
		v-0.1c0-0.4-0.1-0.6-0.2-0.8c-0.2-0.2-0.5-0.3-0.8-0.3C155,13.2,154.5,13.5,154,13.7"/>
	<path class="st12" d="M162.8,16.8v-3.3c-0.3-0.1-0.6-0.2-0.9-0.2c-0.6,0-1,0.2-1.3,0.7c-0.2,0.3-0.3,0.7-0.3,1.1
		c0,0.5,0.2,0.9,0.5,1.2c0.4,0.4,0.9,0.5,1.6,0.5H162.8z M162.2,17.8c-0.9,0-1.8-0.2-2.4-0.8c-0.5-0.4-0.8-1.1-0.8-1.9
		c0-0.7,0.2-1.3,0.6-1.8c0.5-0.6,1.2-1,2.2-1c0.4,0,0.7,0.1,1,0.2V9.9c0-0.1,0.1-0.2,0.1-0.2h0.9c0.1,0,0.2,0.1,0.2,0.2v7.8
		c0,0.1-0.1,0.1-0.2,0.1H162.2z"/>
	<path class="st12" d="M168.6,16.8v-1.5c-0.3,0-1,0-1.4,0.2c-0.4,0.1-0.7,0.4-0.7,0.8c0,0.3,0.1,0.5,0.3,0.6
		c0.2,0.1,0.5,0.2,0.7,0.2C167.9,17.1,168.3,17,168.6,16.8 M166,13.7c-0.1,0-0.2,0-0.2,0l-0.3-0.6c0-0.1,0-0.1,0.1-0.2
		c0.5-0.4,1.3-0.6,2.1-0.6c0.5,0,1.2,0.1,1.6,0.6c0.3,0.3,0.4,0.8,0.4,1.4v3.3c0,0.1-0.1,0.1-0.1,0.1h-0.8c-0.1,0-0.1-0.1-0.1-0.1
		v-0.1h0c-0.5,0.3-1,0.4-1.5,0.4c-0.5,0-0.9-0.1-1.3-0.4c-0.3-0.3-0.6-0.7-0.6-1.2c0-0.7,0.4-1.1,1-1.4c0.7-0.3,1.6-0.4,2.3-0.4
		v-0.1c0-0.4-0.1-0.6-0.2-0.8c-0.2-0.2-0.5-0.3-0.8-0.3C167,13.2,166.5,13.5,166,13.7"/>
	<path class="st12" d="M239.1,11.3l-1.4,3.6h2.7L239.1,11.3z M236.8,17.7c0,0.1-0.1,0.2-0.2,0.2h-1c-0.1,0-0.1,0-0.1-0.1
		c0,0,0-0.1,0-0.1l2.9-7.7c0-0.1,0.1-0.2,0.2-0.2h1.1c0.1,0,0.2,0,0.2,0.2l2.9,7.7c0,0,0,0.1,0,0.1c0,0.1,0,0.1-0.1,0.1h-1
		c-0.1,0-0.2,0-0.2-0.2l-0.6-1.7h-3.4L236.8,17.7z"/>
	<path class="st12" d="M245.2,13.8c-0.3,0.4-0.3,0.9-0.3,1.4v2.5c0,0.1-0.1,0.1-0.1,0.1h-0.9c-0.1,0-0.2-0.1-0.2-0.1v-5.1
		c0-0.1,0.1-0.1,0.2-0.1h0.9c0.1,0,0.2,0.1,0.2,0.1v0.6h0c0.1-0.2,0.3-0.4,0.4-0.5c0.3-0.2,0.6-0.3,1-0.3c0.3,0,0.6,0.1,0.8,0.2
		c0.2,0.1,0.4,0.2,0.5,0.4c0.1,0.1,0.1,0.2,0,0.2l-0.5,0.6c0,0-0.1,0.1-0.2,0c-0.1-0.1-0.2-0.2-0.4-0.2c-0.1-0.1-0.3-0.1-0.5-0.1
		C245.7,13.3,245.4,13.5,245.2,13.8"/>
	<path class="st12" d="M248.5,12.4h0.9c0.1,0,0.1,0.1,0.1,0.1v5.1c0,0.1-0.1,0.1-0.1,0.1h-0.9c-0.1,0-0.2-0.1-0.2-0.1v-5.1
		C248.3,12.5,248.4,12.4,248.5,12.4 M248.2,10c0-0.4,0.3-0.7,0.7-0.7c0.4,0,0.7,0.3,0.7,0.7c0,0.4-0.3,0.7-0.7,0.7
		C248.5,10.7,248.2,10.4,248.2,10"/>
	<path class="st12" d="M250.6,17.8c-0.2,0-0.1-0.1-0.1-0.2l2.9-4.1h-2.7c-0.1,0-0.1-0.1-0.1-0.1v-0.8c0-0.1,0.1-0.1,0.1-0.1h4.4
		c0.1,0,0.2,0.1,0.1,0.2l-2.9,4.1h2.7c0.1,0,0.1,0.1,0.1,0.2v0.8c0,0.1-0.1,0.1-0.1,0.1H250.6z"/>
	<path class="st12" d="M257.4,16.4c0.3,0.3,0.7,0.5,1.2,0.5c0.5,0,0.9-0.2,1.2-0.5c0.3-0.3,0.5-0.8,0.5-1.3c0-0.5-0.2-1-0.5-1.3
		c-0.3-0.3-0.7-0.5-1.2-0.5c-0.5,0-0.9,0.2-1.2,0.5c-0.3,0.3-0.5,0.8-0.5,1.3C256.9,15.6,257.1,16.1,257.4,16.4 M256.5,13.1
		c0.5-0.5,1.2-0.8,2-0.8c0.8,0,1.5,0.3,2,0.8c0.5,0.5,0.8,1.2,0.8,2c0,0.8-0.3,1.6-0.8,2c-0.5,0.5-1.2,0.8-2,0.8
		c-0.8,0-1.5-0.3-2-0.8c-0.5-0.5-0.8-1.2-0.8-2C255.7,14.3,256,13.6,256.5,13.1"/>
	<path class="st12" d="M264.2,14c-0.2,0.3-0.3,0.8-0.3,1.2v2.5c0,0.1-0.1,0.1-0.1,0.1h-0.9c-0.1,0-0.2-0.1-0.2-0.1v-5.1
		c0-0.1,0.1-0.1,0.2-0.1h0.9c0.1,0,0.2,0.1,0.2,0.1v0.7h0c0.1-0.2,0.3-0.4,0.6-0.6c0.3-0.2,0.7-0.3,1.1-0.3c0.6,0,1.2,0.2,1.6,0.5
		c0.4,0.4,0.6,0.9,0.6,1.8v3.1c0,0.1-0.1,0.1-0.1,0.1h-0.9c-0.1,0-0.1-0.1-0.1-0.1v-2.8c0-0.5-0.1-0.9-0.3-1.2
		c-0.2-0.2-0.5-0.3-0.9-0.3C264.9,13.3,264.5,13.6,264.2,14"/>
	<path class="st12" d="M272.4,16.8v-1.5c-0.3,0-1,0-1.4,0.2c-0.4,0.1-0.7,0.4-0.7,0.8c0,0.3,0.1,0.5,0.3,0.6
		c0.2,0.1,0.5,0.2,0.7,0.2C271.7,17.1,272,17,272.4,16.8 M269.8,13.7c-0.1,0-0.2,0-0.2,0l-0.3-0.6c0-0.1,0-0.1,0.1-0.2
		c0.5-0.4,1.3-0.6,2.1-0.6c0.5,0,1.2,0.1,1.6,0.6c0.3,0.3,0.4,0.8,0.4,1.4v3.3c0,0.1-0.1,0.1-0.1,0.1h-0.8c-0.1,0-0.1-0.1-0.1-0.1
		v-0.1h0c-0.5,0.3-1,0.4-1.5,0.4c-0.5,0-0.9-0.1-1.3-0.4c-0.3-0.3-0.6-0.7-0.6-1.2c0-0.7,0.4-1.1,1-1.4c0.7-0.3,1.6-0.4,2.3-0.4
		v-0.1c0-0.4-0.1-0.6-0.2-0.8c-0.2-0.2-0.5-0.3-0.8-0.3C270.8,13.2,270.2,13.5,269.8,13.7"/>
	<path class="st12" d="M382.8,9.9c0-0.1,0.1-0.2,0.1-0.2h1c0.1,0,0.2,0.1,0.2,0.2v7.8c0,0.1-0.1,0.1-0.2,0.1H383
		c-0.1,0-0.2,0-0.3-0.2l-4.5-5.7v5.7c0,0.1-0.1,0.1-0.1,0.1h-1c-0.1,0-0.1-0.1-0.1-0.1V9.9c0-0.1,0.1-0.2,0.1-0.2h0.9
		c0.1,0,0.2,0,0.3,0.2l4.5,5.7V9.9z"/>
	<path class="st12" d="M389.5,14.7c0-0.4-0.1-0.7-0.4-1c-0.2-0.3-0.6-0.4-1-0.4c-0.5,0-0.9,0.2-1.1,0.4c-0.2,0.2-0.3,0.6-0.4,0.9
		H389.5z M389.9,16.6c0.1-0.1,0.2,0,0.2,0l0.3,0.6c0,0.1,0,0.1-0.1,0.2c-0.4,0.3-1.2,0.6-2,0.6c-0.9,0-1.6-0.3-2.1-0.8
		c-0.5-0.5-0.7-1.2-0.7-2c0-0.8,0.3-1.5,0.8-2c0.4-0.5,1.1-0.8,2-0.8c0.9,0,1.6,0.4,2,0.9c0.4,0.5,0.6,1.2,0.5,2
		c0,0.1-0.1,0.2-0.2,0.2h-3.8c0,0.4,0.2,0.8,0.4,1c0.3,0.3,0.7,0.5,1.3,0.5C389,17,389.5,16.8,389.9,16.6"/>
	<path class="st12" d="M394.3,17.7c0,0.1-0.1,0.2-0.2,0.2h-1c-0.1,0-0.2,0-0.2-0.2l-1.6-5.1c0-0.1,0-0.2,0.1-0.2h0.9
		c0.1,0,0.2,0,0.2,0.2l1.1,3.8h0l1.1-3.8c0-0.1,0.1-0.2,0.2-0.2h0.7c0.1,0,0.2,0,0.2,0.2l1.1,3.8h0l1.1-3.8c0-0.1,0.1-0.2,0.2-0.2
		h0.9c0.1,0,0.1,0.1,0.1,0.2l-1.6,5.1c0,0.1-0.1,0.2-0.2,0.2h-1c-0.1,0-0.2,0-0.2-0.2l-1-3.3h0L394.3,17.7z"/>
	<path class="st12" d="M411.5,17.7c0,0.1-0.1,0.1-0.1,0.1h-1c-0.1,0-0.1-0.1-0.1-0.1v-5.6l-2.2,3.7c-0.1,0.1-0.1,0.1-0.2,0.1h-0.7
		c-0.1,0-0.2,0-0.2-0.1l-2.2-3.7v5.6c0,0.1-0.1,0.1-0.1,0.1h-1c-0.1,0-0.1-0.1-0.1-0.1V9.9c0-0.1,0.1-0.2,0.1-0.2h1.1
		c0.1,0,0.2,0,0.3,0.2l2.6,4.4l2.6-4.4c0.1-0.1,0.2-0.2,0.3-0.2h1.1c0.1,0,0.1,0.1,0.1,0.2V17.7z"/>
	<path class="st12" d="M417,14.7c0-0.4-0.1-0.7-0.4-1c-0.2-0.3-0.6-0.4-1-0.4c-0.5,0-0.9,0.2-1.1,0.4c-0.2,0.2-0.3,0.6-0.4,0.9H417z
		 M417.3,16.6c0.1-0.1,0.2,0,0.2,0l0.3,0.6c0,0.1,0,0.1-0.1,0.2c-0.4,0.3-1.2,0.6-2,0.6c-0.9,0-1.6-0.3-2.1-0.8
		c-0.5-0.5-0.7-1.2-0.7-2c0-0.8,0.3-1.5,0.8-2c0.4-0.5,1.1-0.8,2-0.8c0.9,0,1.6,0.4,2,0.9c0.4,0.5,0.6,1.2,0.5,2
		c0,0.1-0.1,0.2-0.2,0.2h-3.8c0,0.4,0.2,0.8,0.4,1c0.3,0.3,0.7,0.5,1.3,0.5C416.4,17,416.9,16.8,417.3,16.6"/>
	<path class="st12" d="M420.8,15.1l-2-2.4c-0.1-0.1-0.1-0.2,0.1-0.2h1.2c0.1,0,0.2,0.1,0.2,0.1l1.3,1.7l1.3-1.7
		c0.1-0.1,0.1-0.1,0.2-0.1h1.1c0.2,0,0.2,0.1,0.1,0.2l-2,2.3l2.2,2.6c0.1,0.1,0.1,0.2-0.1,0.2h-1.1c-0.1,0-0.2-0.1-0.2-0.1l-1.4-1.8
		l-1.4,1.8c-0.1,0.1-0.1,0.1-0.2,0.1h-1.1c-0.2,0-0.2-0.1-0.1-0.2L420.8,15.1z"/>
	<path class="st12" d="M425.5,12.4h0.9c0.1,0,0.1,0.1,0.1,0.1v5.1c0,0.1-0.1,0.1-0.1,0.1h-0.9c-0.1,0-0.2-0.1-0.2-0.1v-5.1
		C425.4,12.5,425.4,12.4,425.5,12.4 M425.3,10c0-0.4,0.3-0.7,0.7-0.7c0.4,0,0.7,0.3,0.7,0.7c0,0.4-0.3,0.7-0.7,0.7
		C425.6,10.7,425.3,10.4,425.3,10"/>
	<path class="st12" d="M432.1,16.6c0.1-0.1,0.2,0,0.2,0l0.3,0.6c0,0.1,0,0.1-0.1,0.2c-0.4,0.3-1.1,0.5-1.8,0.5
		c-0.9,0-1.7-0.3-2.2-0.8c-0.5-0.5-0.7-1.2-0.7-2c0-0.7,0.2-1.3,0.6-1.8c0.5-0.7,1.4-1,2.4-1c0.7,0,1.3,0.2,1.7,0.5
		c0.1,0.1,0.1,0.1,0.1,0.2l-0.4,0.7c0,0.1-0.1,0.1-0.2,0c-0.4-0.2-0.8-0.4-1.2-0.4c-0.5,0-1,0.2-1.3,0.6c-0.3,0.3-0.4,0.7-0.4,1.2
		c0,0.5,0.2,1,0.5,1.3c0.3,0.3,0.7,0.5,1.3,0.5C431.3,16.9,431.7,16.8,432.1,16.6"/>
	<path class="st12" d="M434.8,16.4c0.3,0.3,0.7,0.5,1.2,0.5c0.5,0,0.9-0.2,1.2-0.5c0.3-0.3,0.5-0.8,0.5-1.3c0-0.5-0.2-1-0.5-1.3
		c-0.3-0.3-0.7-0.5-1.2-0.5c-0.5,0-0.9,0.2-1.2,0.5c-0.3,0.3-0.5,0.8-0.5,1.3C434.3,15.6,434.5,16.1,434.8,16.4 M433.9,13.1
		c0.5-0.5,1.2-0.8,2-0.8c0.8,0,1.5,0.3,2,0.8c0.5,0.5,0.8,1.2,0.8,2c0,0.8-0.3,1.6-0.8,2c-0.5,0.5-1.2,0.8-2,0.8
		c-0.8,0-1.5-0.3-2-0.8c-0.5-0.5-0.8-1.2-0.8-2C433.1,14.3,433.4,13.6,433.9,13.1"/>
	<path class="st12" d="M533,20.9c0.1,0,0.1,0.1,0.1,0.2v0.9c0,0.1-0.1,0.1-0.1,0.1h-2.6v6.7c0,0.1-0.1,0.1-0.2,0.1h-1
		c-0.1,0-0.1-0.1-0.1-0.1V22h-2.6c-0.1,0-0.1-0.1-0.1-0.1V21c0-0.1,0.1-0.2,0.1-0.2H533z"/>
	<path class="st12" d="M536.2,25.8c0-0.4-0.1-0.7-0.4-1c-0.2-0.3-0.6-0.4-1-0.4c-0.5,0-0.9,0.2-1.1,0.4c-0.2,0.2-0.3,0.6-0.4,0.9
		H536.2z M536.6,27.7c0.1-0.1,0.2,0,0.2,0l0.3,0.6c0,0.1,0,0.1-0.1,0.2c-0.4,0.3-1.2,0.6-2,0.6c-0.9,0-1.6-0.3-2.1-0.8
		c-0.5-0.5-0.7-1.2-0.7-2c0-0.8,0.3-1.5,0.8-2c0.5-0.5,1.1-0.8,2-0.8c0.9,0,1.6,0.4,2,0.9c0.4,0.5,0.6,1.2,0.5,2
		c0,0.1-0.1,0.2-0.2,0.2h-3.8c0,0.4,0.2,0.8,0.4,1c0.3,0.3,0.7,0.5,1.3,0.5C535.7,28.1,536.2,27.9,536.6,27.7"/>
	<path class="st12" d="M540.1,26.2l-2-2.4c-0.1-0.1-0.1-0.2,0.1-0.2h1.2c0.1,0,0.2,0.1,0.2,0.1l1.3,1.7l1.3-1.7
		c0.1-0.1,0.1-0.1,0.2-0.1h1.1c0.2,0,0.2,0.1,0.1,0.2l-2,2.3l2.2,2.6c0.1,0.1,0.1,0.2-0.1,0.2h-1.1c-0.1,0-0.2-0.1-0.2-0.1l-1.4-1.8
		l-1.4,1.8c-0.1,0.1-0.1,0.1-0.2,0.1H538c-0.2,0-0.2-0.1-0.1-0.2L540.1,26.2z"/>
	<path class="st12" d="M547.6,27.9v-1.5c-0.3,0-1,0-1.4,0.2c-0.4,0.1-0.7,0.4-0.7,0.8c0,0.3,0.1,0.5,0.3,0.6
		c0.2,0.1,0.5,0.2,0.7,0.2C546.9,28.2,547.2,28.1,547.6,27.9 M545,24.8c-0.1,0-0.2,0-0.2,0l-0.3-0.6c0-0.1,0-0.1,0.1-0.2
		c0.5-0.4,1.3-0.6,2.1-0.6c0.5,0,1.2,0.1,1.6,0.6c0.3,0.3,0.4,0.8,0.4,1.4v3.3c0,0.1-0.1,0.1-0.1,0.1h-0.8c-0.1,0-0.1-0.1-0.1-0.1
		v-0.1h0c-0.5,0.3-1,0.4-1.5,0.4c-0.5,0-0.9-0.1-1.3-0.4c-0.3-0.3-0.6-0.7-0.6-1.2c0-0.7,0.4-1.1,1-1.4c0.7-0.3,1.6-0.4,2.3-0.4
		v-0.1c0-0.4-0.1-0.6-0.2-0.8c-0.2-0.2-0.5-0.3-0.8-0.3C546,24.4,545.4,24.6,545,24.8"/>
	<path class="st12" d="M552.6,28c0.2-0.1,0.3-0.3,0.3-0.5c0-0.4-0.2-0.5-0.6-0.7c-0.4-0.2-0.8-0.3-1.3-0.5c-0.6-0.2-0.9-0.7-0.9-1.4
		c0-0.5,0.2-0.8,0.5-1.1c0.3-0.3,0.9-0.4,1.5-0.4c0.8,0,1.3,0.2,1.7,0.4c0.1,0,0.1,0.1,0.1,0.2l-0.3,0.6c0,0.1-0.1,0.1-0.2,0
		c-0.4-0.2-0.9-0.3-1.2-0.3c-0.3,0-0.5,0.1-0.7,0.2c-0.1,0.1-0.2,0.2-0.2,0.4c0,0.3,0.2,0.5,0.6,0.6c0.4,0.2,0.9,0.3,1.2,0.5
		c0.7,0.3,1,0.7,1,1.3c0,0.5-0.2,1-0.6,1.3c-0.4,0.2-0.9,0.4-1.5,0.4c-0.9,0-1.5-0.2-1.9-0.5c-0.1,0-0.1-0.1-0.1-0.2l0.3-0.6
		c0-0.1,0.1-0.1,0.2-0.1c0.4,0.3,0.9,0.4,1.4,0.4C552.2,28.2,552.4,28.1,552.6,28"/>
	<path class="st12" d="M637.3,10.9c-1.6,0-2.9,1.3-2.9,2.9c0,1.6,1.2,2.9,2.9,2.9c1.6,0,2.9-1.3,2.9-2.9
		C640.2,12.2,638.9,10.9,637.3,10.9 M637.3,17.9c-2.3,0-4.3-1.7-4.3-4.1c0-2.4,1.9-4.2,4.3-4.2c2.3,0,4.3,1.8,4.3,4.2
		C641.6,16.2,639.6,17.9,637.3,17.9"/>
	<path class="st12" d="M644.8,15.5l-0.7,0.6v1.5c0,0.1-0.1,0.1-0.1,0.1h-0.9c-0.1,0-0.2-0.1-0.2-0.1V9.9c0-0.1,0.1-0.2,0.2-0.2h0.9
		c0.1,0,0.1,0.1,0.1,0.2v4.9l2.3-2.2c0.1-0.1,0.2-0.1,0.3-0.1h1.1c0.2,0,0.2,0.1,0.1,0.2l-2.2,2l2.3,2.9c0.1,0.1,0.1,0.2-0.1,0.2
		h-1.1c-0.1,0-0.2,0-0.2-0.1L644.8,15.5z"/>
	<path class="st12" d="M649.1,9.8h0.9c0.1,0,0.1,0.1,0.1,0.2v7.8c0,0.1-0.1,0.1-0.1,0.1h-0.9c-0.1,0-0.2-0.1-0.2-0.1V9.9
		C649,9.8,649,9.8,649.1,9.8"/>
	<path class="st12" d="M654.8,16.8v-1.5c-0.3,0-1,0-1.4,0.2c-0.4,0.1-0.7,0.4-0.7,0.8c0,0.3,0.1,0.5,0.3,0.6
		c0.2,0.1,0.5,0.2,0.7,0.2C654.1,17.1,654.4,17,654.8,16.8 M652.2,13.7c-0.1,0-0.2,0-0.2,0l-0.3-0.6c0-0.1,0-0.1,0.1-0.2
		c0.5-0.4,1.3-0.6,2.1-0.6c0.5,0,1.2,0.1,1.6,0.6c0.3,0.3,0.5,0.8,0.5,1.4v3.3c0,0.1-0.1,0.1-0.1,0.1H655c-0.1,0-0.1-0.1-0.1-0.1
		v-0.1h0c-0.5,0.3-1,0.4-1.5,0.4c-0.5,0-0.9-0.1-1.3-0.4c-0.3-0.3-0.6-0.7-0.6-1.2c0-0.7,0.4-1.1,1-1.4c0.7-0.3,1.6-0.4,2.3-0.4
		v-0.1c0-0.4-0.1-0.6-0.2-0.8c-0.2-0.2-0.5-0.3-0.8-0.3C653.1,13.2,652.6,13.5,652.2,13.7"/>
	<path class="st12" d="M657.7,9.8h0.9c0.1,0,0.1,0.1,0.1,0.2v3.3c0.2-0.2,0.4-0.5,0.7-0.6c0.3-0.2,0.7-0.3,1.1-0.3
		c0.6,0,1.2,0.2,1.6,0.5c0.4,0.4,0.6,0.9,0.6,1.8v3.1c0,0.1-0.1,0.1-0.1,0.1h-0.9c-0.1,0-0.2-0.1-0.2-0.1v-2.8
		c0-0.5-0.1-0.9-0.3-1.2c-0.2-0.2-0.5-0.3-0.9-0.3c-0.5,0-1,0.2-1.2,0.6c-0.2,0.3-0.3,0.7-0.3,1.1v2.6c0,0.1-0.1,0.1-0.1,0.1h-0.9
		c-0.1,0-0.2-0.1-0.2-0.1V9.9C657.5,9.8,657.6,9.8,657.7,9.8"/>
	<path class="st12" d="M665.5,16.4c0.3,0.3,0.7,0.5,1.2,0.5c0.5,0,0.9-0.2,1.2-0.5c0.3-0.3,0.5-0.8,0.5-1.3c0-0.5-0.2-1-0.5-1.3
		c-0.3-0.3-0.7-0.5-1.2-0.5c-0.5,0-0.9,0.2-1.2,0.5c-0.3,0.3-0.5,0.8-0.5,1.3C665.1,15.6,665.2,16.1,665.5,16.4 M664.7,13.1
		c0.5-0.5,1.2-0.8,2-0.8c0.8,0,1.5,0.3,2,0.8c0.5,0.5,0.8,1.2,0.8,2c0,0.8-0.3,1.6-0.8,2c-0.5,0.5-1.2,0.8-2,0.8
		c-0.8,0-1.5-0.3-2-0.8c-0.5-0.5-0.8-1.2-0.8-2C663.9,14.3,664.2,13.6,664.7,13.1"/>
	<path class="st12" d="M672.2,13.1c0.1-0.2,0.2-0.3,0.4-0.5c0.3-0.2,0.7-0.3,1-0.3c0.4,0,0.8,0.1,1.1,0.3c0.3,0.2,0.5,0.4,0.6,0.7
		c0.2-0.2,0.4-0.5,0.7-0.7c0.3-0.2,0.7-0.2,1.1-0.2c0.6,0,1.1,0.2,1.5,0.5c0.3,0.3,0.6,0.9,0.6,1.6v3.2c0,0.1-0.1,0.1-0.1,0.1h-0.9
		c-0.1,0-0.2-0.1-0.2-0.1v-2.9c0-0.5-0.1-0.9-0.3-1.1c-0.2-0.2-0.4-0.3-0.8-0.3c-0.4,0-0.7,0.2-0.9,0.5c-0.2,0.3-0.3,0.7-0.3,1.2
		v2.6c0,0.1-0.1,0.1-0.1,0.1h-0.9c-0.1,0-0.2-0.1-0.2-0.1v-2.9c0-0.5-0.1-0.9-0.3-1.1c-0.2-0.2-0.4-0.3-0.8-0.3
		c-0.4,0-0.7,0.2-0.9,0.5c-0.2,0.3-0.3,0.6-0.3,1.1v2.8c0,0.1-0.1,0.1-0.1,0.1h-0.9c-0.1,0-0.2-0.1-0.2-0.1v-5.1
		c0-0.1,0.1-0.1,0.2-0.1h0.9c0.1,0,0.2,0.1,0.2,0.1L672.2,13.1L672.2,13.1z"/>
	<path class="st12" d="M683.7,16.8v-1.5c-0.3,0-1,0-1.4,0.2c-0.4,0.1-0.7,0.4-0.7,0.8c0,0.3,0.1,0.5,0.3,0.6
		c0.2,0.1,0.5,0.2,0.7,0.2C683,17.1,683.3,17,683.7,16.8 M681.1,13.7c-0.1,0-0.2,0-0.2,0l-0.3-0.6c0-0.1,0-0.1,0.1-0.2
		c0.5-0.4,1.3-0.6,2.1-0.6c0.5,0,1.2,0.1,1.6,0.6c0.3,0.3,0.4,0.8,0.4,1.4v3.3c0,0.1-0.1,0.1-0.1,0.1h-0.8c-0.1,0-0.1-0.1-0.1-0.1
		v-0.1h0c-0.5,0.3-1,0.4-1.5,0.4c-0.5,0-0.9-0.1-1.3-0.4c-0.3-0.3-0.6-0.7-0.6-1.2c0-0.7,0.4-1.1,1-1.4c0.7-0.3,1.6-0.4,2.3-0.4
		v-0.1c0-0.4-0.1-0.6-0.2-0.8c-0.2-0.2-0.5-0.3-0.8-0.3C682,13.2,681.5,13.5,681.1,13.7"/>
</g>
</svg>
